<svg height="480pt" viewBox="0 -24 480.00001 480" width="480pt" xmlns="http://www.w3.org/2000/svg"><path d="m472 40h-38.703125l-19.625-6.542969-14.472656-29.03125c-1.359375-2.726562-4.152344-4.441406-7.199219-4.425781h-40c-3.335938-.00390625-6.324219 2.066406-7.496094 5.191406l-24 64c-1.097656 2.9375-.378906 6.25 1.839844 8.464844l9.320312 9.328125-46.222656 33.015625h-60.640625l-36.847656-7.367188-27.953125-27.945312v-36.6875c0-4.417969-3.582031-8-8-8h-40c-1.453125 0-2.875.394531-4.121094 1.144531l-40 24c-2.40625 1.445313-3.878906 4.046875-3.878906 6.855469v24h-56c-4.417969 0-8 3.582031-8 8v32c0 1.730469.5625 3.414062 1.601562 4.800781l21.488282 28.648438-6.683594 20c-.273438.820312-.410156 1.683593-.40625 2.550781v16c0 2.46875 1.136719 4.804688 3.089844 6.320312l72 56c1.402344 1.089844 3.132812 1.679688 4.910156 1.679688h80v20.6875l-13.65625 13.65625c-3.121094 3.125-3.121094 8.1875 0 11.3125l40 40c3.125 3.121094 8.1875 3.121094 11.3125 0l19.917969-19.921875 42.851562 21.464844c1.113281.539062 2.335938.816406 3.574219.800781h24c1.082031.003906 2.15625-.21875 3.152344-.648438l56-24c1.628906-.695312 2.976562-1.914062 3.839844-3.464843l40-72c1.359374-2.445313 1.339843-5.425781-.046876-7.855469l-28.96875-50.695312 11.679688-11.679688c3.121094-3.125 3.121094-8.1875 0-11.3125l-18.34375-18.34375 12.6875-12.6875 10.34375 10.34375c2.996094 3 7.808594 3.144531 10.976562.328125l72-64c1.707032-1.519531 2.683594-3.699219 2.679688-5.984375v-40c0-4.417969-3.582031-8-8-8zm-8 44.40625-63.671875 56.601562-10.671875-10.664062c-3.125-3.121094-8.1875-3.121094-11.3125 0l-24 24c-3.121094 3.125-3.121094 8.1875 0 11.3125l18.34375 18.34375-10.34375 10.34375c-2.539062 2.546875-3.066406 6.472656-1.289062 9.601562l29.761718 52.085938-36.480468 65.664062-51.9375 22.304688h-20.511719l-46.3125-23.199219c-3.078125-1.539062-6.796875-.933593-9.230469 1.503907l-18.34375 18.382812-28.6875-28.6875 10.34375-10.34375c1.5-1.5 2.34375-3.535156 2.34375-5.65625v-32c0-4.417969-3.582031-8-8-8h-85.257812l-66.742188-51.910156v-10.792969l7.59375-22.769531c.828125-2.488282.382812-5.226563-1.195312-7.328125l-22.398438-29.863281v-21.335938h56c4.417969 0 8-3.582031 8-8v-27.472656l34.214844-20.527344h29.785156v32c0 2.121094.84375 4.15625 2.34375 5.65625l32 32c1.113281 1.117188 2.539062 1.878906 4.089844 2.183594l40 8c.515625.109375 1.039062.164062 1.566406.160156h64c1.667969 0 3.292969-.519531 4.648438-1.488281l56-40c1.914062-1.367188 3.128906-3.507813 3.324218-5.851563.195313-2.34375-.652344-4.652344-2.316406-6.316406l-12.351562-12.359375 20.238281-53.984375h29.511719l13.785156 27.574219c.953125 1.894531 2.617187 3.335937 4.632812 4l24 8c.8125.277343 1.667969.421875 2.527344.425781h32zm0 0"/><path d="m272 432c.65625 0 1.308594-.082031 1.945312-.238281l32-8c3.558594-.894531 6.054688-4.09375 6.054688-7.761719v-32c0-2.351562-1.035156-4.585938-2.832031-6.105469s-4.167969-2.171875-6.488281-1.78125l-48 8c-2.503907.417969-4.660157 1.996094-5.808594 4.257813-1.152344 2.261718-1.164063 4.933594-.03125 7.203125l16 32c1.355468 2.714843 4.128906 4.425781 7.160156 4.425781zm24-38.550781v16.304687l-19.710938 4.925782-8.289062-16.566407zm0 0"/></svg>