<?xml version="1.0" encoding="utf-8"?>
<!-- Generator: Adobe Illustrator 23.0.0, SVG Export Plug-In . SVG Version: 6.00 Build 0)  -->
<svg version="1.1" id="a11dcf94-02e4-448c-aa1e-cfae5c49b9a0"
	 xmlns="http://www.w3.org/2000/svg" xmlns:xlink="http://www.w3.org/1999/xlink" x="0px" y="0px" viewBox="0 0 1137 776.6"
	 style="enable-background:new 0 0 1137 776.6;" xml:space="preserve">
<style type="text/css">
	.st0{fill:#3F3D56;}
	.st1{fill:#F2F2F2;}
	.st2{fill:#4285F4;}
	.st3{opacity:0.1;enable-background:new    ;}
	.st4{fill:#FFFFFF;}
	.st5{fill:#FFD32A;}
</style>
<title>around the world</title>
<path class="st0" d="M1053.7,531.2c-6.1,51.9-18.6,93.5-35.9,126.7c-23,44.2-62.3,62.1-97.4,80.7c-10.1,5.4-20.7,10-31.5,13.7
	c-63.9,22.2-135.4,16.3-191.5,4.6c-39.4-8.2-79.4-13.3-119.6-15.1c-11.5-0.5-22.9-0.8-34.4-0.8c-17.7,0-336.6,6.1-414.3-151.1
	c-19.2-38.8-32.3-86.1-37-143.9c-13.4-163.2,60.1-270.4,154.8-340.5C426-27,671.6-21.5,848.1,114.6
	C965.6,205.2,1075.7,342.3,1053.7,531.2z"/>
<path class="st1" d="M829.8,384.2c-50.9-38.1-130.6-74.1-218.8-98.8c-80.2-22.5-158.5-33.3-220.4-30.6l-0.3-7.2
	c62.6-2.8,141.7,8.1,222.6,30.8c88.9,24.9,169.5,61.3,221.1,99.9L829.8,384.2z"/>
<path class="st2" d="M824.5,413.5c0,33.7-7,67.1-20.7,97.9c-1.1,2.6-2.3,5.1-3.6,7.7c-40.3,82.7-124.3,135.1-216.3,135.1
	c-132.9,0-240.6-107.7-240.6-240.6c0-5.6,0.2-11.1,0.6-16.6c0.2-2.8,0.4-5.6,0.7-8.3C357,267.5,459.4,173,583.9,173
	C716.8,173,824.5,280.7,824.5,413.5z"/>
<path class="st3" d="M803.8,511.4c-1.1,2.6-2.3,5.1-3.6,7.7c-7,0.8-14.4,1.3-22.2,1.7c-6.4,0.3-13.1,0.4-19.8,0.4
	c-59.1,0-130.2-10.9-202.8-31.3c-81-22.7-154.2-54.4-206.2-89.4c-1.8-1.2-3.5-2.4-5.2-3.6c0.2-2.8,0.4-5.6,0.7-8.3
	c2.8,2,5.6,3.9,8.5,5.9c51.4,34.5,123.9,65.9,204.2,88.4c72,20.2,142.4,31,200.8,31c6.7,0,13.2-0.1,19.5-0.4
	C786.9,513.1,795.6,512.4,803.8,511.4z"/>
<path class="st1" d="M758.2,515.4c-59.1,0-130.2-10.9-202.8-31.3c-81-22.7-154.2-54.4-206.2-89.4c-53.1-35.7-78-70.8-70.1-99
	c7.9-28.2,47.4-45.2,111.4-48.1l0.3,7.2c-29.9,1.3-54.2,5.8-72.3,13.2c-18.1,7.4-29,17.4-32.4,29.7c-3.4,12.3,0.7,26.5,12.3,42.2
	c11.6,15.8,30.1,32.2,54.9,48.8c51.4,34.5,123.9,65.9,204.2,88.4c72,20.2,142.4,31,200.8,31c6.7,0,13.2-0.1,19.5-0.4
	c29.9-1.3,54.2-5.8,72.3-13.2c18.1-7.4,29-17.4,32.4-29.7c6.2-22.1-12.5-50.7-52.6-80.7l4.3-5.8c20.6,15.4,35.9,30.6,45.4,45.2
	c10.2,15.6,13.5,30.2,9.8,43.2C881.5,495,841.9,512.1,778,515C771.5,515.3,764.9,515.4,758.2,515.4z"/>
<circle class="st1" cx="590.3" cy="126.8" r="2.8"/>
<circle class="st1" cx="224.5" cy="244.5" r="2.8"/>
<circle class="st1" cx="214.4" cy="430.1" r="2.8"/>
<circle class="st1" cx="776.8" cy="143.3" r="1.8"/>
<circle class="st1" cx="998.3" cy="402.5" r="1.8"/>
<circle class="st1" cx="897.2" cy="318" r="1.8"/>
<circle class="st1" cx="390.9" cy="184.7" r="1.8"/>
<circle class="st1" cx="890.8" cy="377.7" r="1.8"/>
<circle class="st1" cx="236.5" cy="562.4" r="1.8"/>
<circle class="st1" cx="345.8" cy="637.8" r="1.8"/>
<polygon class="st1" points="504.8,49.8 502.3,49.8 502.3,47.3 500.9,47.3 500.9,49.8 498.4,49.8 498.4,51.2 500.9,51.2 500.9,53.7 
	502.3,53.7 502.3,51.2 504.8,51.2 "/>
<polygon class="st1" points="778.7,674.8 776.1,674.8 776.1,672.2 774.8,672.2 774.8,674.8 772.2,674.8 772.2,676.1 774.8,676.1 
	774.8,678.7 776.1,678.7 776.1,676.1 778.7,676.1 "/>
<polygon class="st1" points="948.7,637.1 946.1,637.1 946.1,634.5 944.8,634.5 944.8,637.1 942.3,637.1 942.3,638.4 944.8,638.4 
	944.8,641 946.1,641 946.1,638.4 948.7,638.4 "/>
<circle class="st0" cx="587.5" cy="225.2" r="20.2"/>
<circle class="st0" cx="432.2" cy="373.1" r="20.2"/>
<circle class="st0" cx="655.5" cy="576.2" r="20.2"/>
<circle class="st0" cx="587.5" cy="404.4" r="20.2"/>
<circle class="st0" cx="442.3" cy="515.6" r="20.2"/>
<circle class="st0" cx="696" cy="295.9" r="20.2"/>
<circle class="st0" cx="763" cy="432.8" r="20.2"/>
<circle class="st4" cx="587.5" cy="316.1" r="26.7"/>
<path class="st5" d="M587.5,277.5c-20.8,0-37.7,16.9-37.7,37.7s37.7,89.1,37.7,89.1s37.7-68.3,37.7-89.1S608.3,277.5,587.5,277.5z
	 M587.5,333.6c-9.6,0-17.5-7.8-17.5-17.5s7.8-17.5,17.5-17.5c9.6,0,17.5,7.8,17.5,17.5C605,325.8,597.2,333.6,587.5,333.6
	L587.5,333.6L587.5,333.6z"/>
<circle class="st4" cx="442.3" cy="430.1" r="26.7"/>
<path class="st5" d="M442.3,391.5c-20.8,0-37.7,16.9-37.7,37.7s37.7,89.1,37.7,89.1S480,450,480,429.2S463.1,391.5,442.3,391.5z
	 M442.3,447.5c-9.6,0-17.5-7.8-17.5-17.5s7.8-17.5,17.5-17.5c9.6,0,17.5,7.8,17.5,17.5C459.8,439.7,452,447.5,442.3,447.5
	L442.3,447.5L442.3,447.5z"/>
<circle class="st4" cx="763" cy="347.4" r="26.7"/>
<path class="st5" d="M763,308.8c-20.8,0-37.7,16.9-37.7,37.7c0,20.8,37.7,89.1,37.7,89.1s37.7-68.3,37.7-89.1
	C800.7,325.6,783.9,308.8,763,308.8z M763,364.8c-9.6,0-17.5-7.8-17.5-17.5s7.8-17.5,17.5-17.5c9.6,0,17.5,7.8,17.5,17.5
	S772.7,364.8,763,364.8L763,364.8z"/>
<circle class="st4" cx="587.5" cy="136.9" r="26.7"/>
<path class="st5" d="M587.5,98.3c-20.8,0-37.7,16.9-37.7,37.7s37.7,89.1,37.7,89.1s37.7-68.3,37.7-89.1S608.3,98.3,587.5,98.3z
	 M587.5,154.4c-9.6,0-17.5-7.8-17.5-17.5s7.8-17.5,17.5-17.5c9.6,0,17.5,7.8,17.5,17.5C605,146.6,597.2,154.4,587.5,154.4
	L587.5,154.4z"/>
<circle class="st4" cx="655.5" cy="490.7" r="26.7"/>
<path class="st5" d="M655.5,452.1c-20.8,0-37.7,16.9-37.7,37.7s37.7,89.1,37.7,89.1s37.7-68.3,37.7-89.1S676.3,452.1,655.5,452.1z
	 M655.5,508.2c-9.6,0-17.5-7.8-17.5-17.5s7.8-17.5,17.5-17.5c9.6,0,17.5,7.8,17.5,17.5S665.2,508.2,655.5,508.2L655.5,508.2z"/>
<circle class="st4" cx="432.2" cy="285.8" r="26.7"/>
<path class="st5" d="M432.2,247.2c-20.8,0-37.7,16.9-37.7,37.7c0,20.8,37.7,89.1,37.7,89.1s37.7-68.3,37.7-89.1
	C469.9,264.1,453,247.2,432.2,247.2z M432.2,303.3c-9.6,0-17.5-7.8-17.5-17.5s7.8-17.5,17.5-17.5c9.6,0,17.5,7.8,17.5,17.5
	S441.9,303.3,432.2,303.3L432.2,303.3z"/>
<circle class="st4" cx="696" cy="211.4" r="26.7"/>
<path class="st5" d="M696,172.8c-20.8,0-37.7,16.9-37.7,37.7s37.7,89.1,37.7,89.1s37.7-68.3,37.7-89.1S716.8,172.8,696,172.8z
	 M696,228.8c-9.6,0-17.5-7.8-17.5-17.5s7.8-17.5,17.5-17.5c9.6,0,17.5,7.8,17.5,17.5C713.4,221,705.6,228.8,696,228.8
	C696,228.8,696,228.8,696,228.8L696,228.8z"/>
</svg>
